<mxfile host="app.diagrams.net" agent="Mozilla/5.0 (Windows NT 10.0; Win64; x64) AppleWebKit/537.36 (KHTML, like Gecko) Chrome/131.0.0.0 Safari/537.36" version="26.0.7">
  <diagram name="Page-1" id="50h73x65bCfbo0z0091v">
    <mxGraphModel dx="1231" dy="641" grid="1" gridSize="10" guides="1" tooltips="1" connect="1" arrows="1" fold="1" page="1" pageScale="1" pageWidth="850" pageHeight="1100" math="0" shadow="0">
      <root>
        <mxCell id="0" />
        <mxCell id="1" parent="0" />
        <mxCell id="3rJVLB76j5-zWJeL9BG_-1" value="Pelanggan" style="shape=umlActor;verticalLabelPosition=bottom;verticalAlign=top;html=1;outlineConnect=0;" vertex="1" parent="1">
          <mxGeometry x="80" y="160" width="30" height="60" as="geometry" />
        </mxCell>
        <mxCell id="3rJVLB76j5-zWJeL9BG_-2" value="Warung Kelontong Pak Wanto" style="swimlane;whiteSpace=wrap;html=1;" vertex="1" parent="1">
          <mxGeometry x="160" y="40" width="520" height="620" as="geometry" />
        </mxCell>
        <mxCell id="3rJVLB76j5-zWJeL9BG_-6" value="Melakukan Transaksi" style="ellipse;whiteSpace=wrap;html=1;" vertex="1" parent="3rJVLB76j5-zWJeL9BG_-2">
          <mxGeometry x="215" y="50" width="75" height="50" as="geometry" />
        </mxCell>
        <mxCell id="3rJVLB76j5-zWJeL9BG_-7" value="Laporan transaksi&lt;span style=&quot;color: rgba(0, 0, 0, 0); font-family: monospace; font-size: 0px; text-align: start; text-wrap-mode: nowrap;&quot;&gt;%3CmxGraphModel%3E%3Croot%3E%3CmxCell%20id%3D%220%22%2F%3E%3CmxCell%20id%3D%221%22%20parent%3D%220%22%2F%3E%3CmxCell%20id%3D%222%22%20value%3D%22Melakukan%20Transaksi%22%20style%3D%22ellipse%3BwhiteSpace%3Dwrap%3Bhtml%3D1%3B%22%20vertex%3D%221%22%20parent%3D%221%22%3E%3CmxGeometry%20x%3D%22375%22%20y%3D%2290%22%20width%3D%2275%22%20height%3D%2250%22%20as%3D%22geometry%22%2F%3E%3C%2FmxCell%3E%3C%2Froot%3E%3C%2FmxGraphModel%3E&lt;/span&gt;" style="ellipse;whiteSpace=wrap;html=1;" vertex="1" parent="3rJVLB76j5-zWJeL9BG_-2">
          <mxGeometry x="215" y="490" width="75" height="50" as="geometry" />
        </mxCell>
        <mxCell id="3rJVLB76j5-zWJeL9BG_-8" value="Laporan keuntungan" style="ellipse;whiteSpace=wrap;html=1;" vertex="1" parent="3rJVLB76j5-zWJeL9BG_-2">
          <mxGeometry x="215" y="360" width="75" height="50" as="geometry" />
        </mxCell>
        <mxCell id="3rJVLB76j5-zWJeL9BG_-9" value="Laporan stok" style="ellipse;whiteSpace=wrap;html=1;" vertex="1" parent="3rJVLB76j5-zWJeL9BG_-2">
          <mxGeometry x="215" y="430" width="75" height="50" as="geometry" />
        </mxCell>
        <mxCell id="3rJVLB76j5-zWJeL9BG_-10" value="Mencatat transaksi" style="ellipse;whiteSpace=wrap;html=1;" vertex="1" parent="3rJVLB76j5-zWJeL9BG_-2">
          <mxGeometry x="215" y="110" width="75" height="50" as="geometry" />
        </mxCell>
        <mxCell id="3rJVLB76j5-zWJeL9BG_-11" value="Memperbarui stok" style="ellipse;whiteSpace=wrap;html=1;" vertex="1" parent="3rJVLB76j5-zWJeL9BG_-2">
          <mxGeometry x="215" y="230" width="75" height="50" as="geometry" />
        </mxCell>
        <mxCell id="3rJVLB76j5-zWJeL9BG_-3" value="Kasir" style="shape=umlActor;verticalLabelPosition=bottom;verticalAlign=top;html=1;outlineConnect=0;" vertex="1" parent="1">
          <mxGeometry x="720" y="130" width="30" height="60" as="geometry" />
        </mxCell>
        <mxCell id="3rJVLB76j5-zWJeL9BG_-4" value="Pak Wanto" style="shape=umlActor;verticalLabelPosition=bottom;verticalAlign=top;html=1;outlineConnect=0;" vertex="1" parent="1">
          <mxGeometry x="80" y="470" width="30" height="60" as="geometry" />
        </mxCell>
        <mxCell id="3rJVLB76j5-zWJeL9BG_-5" value="&lt;font style=&quot;font-size: 24px;&quot;&gt;Use Case Diagram&lt;/font&gt;" style="text;html=1;align=center;verticalAlign=middle;whiteSpace=wrap;rounded=0;" vertex="1" parent="1">
          <mxGeometry x="10" y="20" width="110" height="60" as="geometry" />
        </mxCell>
        <mxCell id="3rJVLB76j5-zWJeL9BG_-12" value="" style="endArrow=none;html=1;rounded=0;exitX=1;exitY=0.3333333333333333;exitDx=0;exitDy=0;exitPerimeter=0;entryX=0;entryY=0.5;entryDx=0;entryDy=0;" edge="1" parent="1" source="3rJVLB76j5-zWJeL9BG_-1" target="3rJVLB76j5-zWJeL9BG_-6">
          <mxGeometry width="50" height="50" relative="1" as="geometry">
            <mxPoint x="460" y="350" as="sourcePoint" />
            <mxPoint x="510" y="300" as="targetPoint" />
          </mxGeometry>
        </mxCell>
        <mxCell id="3rJVLB76j5-zWJeL9BG_-13" value="" style="endArrow=none;html=1;rounded=0;exitX=0;exitY=0.3333333333333333;exitDx=0;exitDy=0;exitPerimeter=0;entryX=1;entryY=0.5;entryDx=0;entryDy=0;" edge="1" parent="1" source="3rJVLB76j5-zWJeL9BG_-3" target="3rJVLB76j5-zWJeL9BG_-10">
          <mxGeometry width="50" height="50" relative="1" as="geometry">
            <mxPoint x="120" y="190" as="sourcePoint" />
            <mxPoint x="385" y="125" as="targetPoint" />
          </mxGeometry>
        </mxCell>
        <mxCell id="3rJVLB76j5-zWJeL9BG_-14" value="" style="endArrow=none;html=1;rounded=0;exitX=0;exitY=0.3333333333333333;exitDx=0;exitDy=0;exitPerimeter=0;entryX=1;entryY=0.5;entryDx=0;entryDy=0;" edge="1" parent="1" source="3rJVLB76j5-zWJeL9BG_-3" target="3rJVLB76j5-zWJeL9BG_-6">
          <mxGeometry width="50" height="50" relative="1" as="geometry">
            <mxPoint x="730" y="160" as="sourcePoint" />
            <mxPoint x="460" y="185" as="targetPoint" />
          </mxGeometry>
        </mxCell>
        <mxCell id="3rJVLB76j5-zWJeL9BG_-15" value="" style="endArrow=none;html=1;rounded=0;exitX=0;exitY=0.5;exitDx=0;exitDy=0;entryX=1;entryY=0.3333333333333333;entryDx=0;entryDy=0;entryPerimeter=0;" edge="1" parent="1" source="3rJVLB76j5-zWJeL9BG_-10" target="3rJVLB76j5-zWJeL9BG_-1">
          <mxGeometry width="50" height="50" relative="1" as="geometry">
            <mxPoint x="730" y="160" as="sourcePoint" />
            <mxPoint x="460" y="125" as="targetPoint" />
          </mxGeometry>
        </mxCell>
        <mxCell id="3rJVLB76j5-zWJeL9BG_-16" value="" style="endArrow=none;html=1;rounded=0;exitX=0;exitY=0.3333333333333333;exitDx=0;exitDy=0;entryX=1;entryY=0.5;entryDx=0;entryDy=0;exitPerimeter=0;" edge="1" parent="1" source="3rJVLB76j5-zWJeL9BG_-3" target="3rJVLB76j5-zWJeL9BG_-11">
          <mxGeometry width="50" height="50" relative="1" as="geometry">
            <mxPoint x="385" y="185" as="sourcePoint" />
            <mxPoint x="120" y="190" as="targetPoint" />
          </mxGeometry>
        </mxCell>
        <mxCell id="3rJVLB76j5-zWJeL9BG_-17" value="" style="endArrow=none;html=1;rounded=0;exitX=0;exitY=0.3333333333333333;exitDx=0;exitDy=0;entryX=1;entryY=0.5;entryDx=0;entryDy=0;exitPerimeter=0;" edge="1" parent="1" source="3rJVLB76j5-zWJeL9BG_-3" target="3rJVLB76j5-zWJeL9BG_-8">
          <mxGeometry width="50" height="50" relative="1" as="geometry">
            <mxPoint x="730" y="160" as="sourcePoint" />
            <mxPoint x="460" y="305" as="targetPoint" />
          </mxGeometry>
        </mxCell>
        <mxCell id="3rJVLB76j5-zWJeL9BG_-18" value="" style="endArrow=none;html=1;rounded=0;entryX=0;entryY=0.5;entryDx=0;entryDy=0;exitX=0;exitY=0.3333333333333333;exitDx=0;exitDy=0;exitPerimeter=0;" edge="1" parent="1" source="3rJVLB76j5-zWJeL9BG_-4" target="3rJVLB76j5-zWJeL9BG_-9">
          <mxGeometry width="50" height="50" relative="1" as="geometry">
            <mxPoint x="710" y="460" as="sourcePoint" />
            <mxPoint x="460" y="435" as="targetPoint" />
          </mxGeometry>
        </mxCell>
        <mxCell id="3rJVLB76j5-zWJeL9BG_-19" value="" style="endArrow=none;html=1;rounded=0;entryX=0;entryY=0.5;entryDx=0;entryDy=0;exitX=0;exitY=0.3333333333333333;exitDx=0;exitDy=0;exitPerimeter=0;" edge="1" parent="1" source="3rJVLB76j5-zWJeL9BG_-4" target="3rJVLB76j5-zWJeL9BG_-8">
          <mxGeometry width="50" height="50" relative="1" as="geometry">
            <mxPoint x="720" y="470" as="sourcePoint" />
            <mxPoint x="460" y="505" as="targetPoint" />
          </mxGeometry>
        </mxCell>
        <mxCell id="3rJVLB76j5-zWJeL9BG_-20" value="" style="endArrow=none;html=1;rounded=0;entryX=0;entryY=0.5;entryDx=0;entryDy=0;exitX=0;exitY=0.3333333333333333;exitDx=0;exitDy=0;exitPerimeter=0;" edge="1" parent="1" source="3rJVLB76j5-zWJeL9BG_-4" target="3rJVLB76j5-zWJeL9BG_-7">
          <mxGeometry width="50" height="50" relative="1" as="geometry">
            <mxPoint x="730" y="470" as="sourcePoint" />
            <mxPoint x="460" y="505" as="targetPoint" />
          </mxGeometry>
        </mxCell>
        <mxCell id="3rJVLB76j5-zWJeL9BG_-22" value="" style="endArrow=none;html=1;rounded=0;entryX=1;entryY=0.5;entryDx=0;entryDy=0;exitX=0;exitY=0.3333333333333333;exitDx=0;exitDy=0;exitPerimeter=0;" edge="1" parent="1" source="3rJVLB76j5-zWJeL9BG_-3" target="3rJVLB76j5-zWJeL9BG_-9">
          <mxGeometry width="50" height="50" relative="1" as="geometry">
            <mxPoint x="730" y="470" as="sourcePoint" />
            <mxPoint x="460" y="435" as="targetPoint" />
          </mxGeometry>
        </mxCell>
        <mxCell id="3rJVLB76j5-zWJeL9BG_-23" value="" style="endArrow=none;html=1;rounded=0;entryX=1;entryY=0.5;entryDx=0;entryDy=0;exitX=0;exitY=0.3333333333333333;exitDx=0;exitDy=0;exitPerimeter=0;" edge="1" parent="1" source="3rJVLB76j5-zWJeL9BG_-3" target="3rJVLB76j5-zWJeL9BG_-7">
          <mxGeometry width="50" height="50" relative="1" as="geometry">
            <mxPoint x="730" y="160" as="sourcePoint" />
            <mxPoint x="460" y="505" as="targetPoint" />
          </mxGeometry>
        </mxCell>
        <mxCell id="3rJVLB76j5-zWJeL9BG_-24" value="Transaksi" style="swimlane;fontStyle=1;align=center;verticalAlign=top;childLayout=stackLayout;horizontal=1;startSize=26;horizontalStack=0;resizeParent=1;resizeParentMax=0;resizeLast=0;collapsible=1;marginBottom=0;whiteSpace=wrap;html=1;textShadow=0;labelBackgroundColor=none;fillColor=#66B2FF;strokeColor=#788AA3;fontColor=#46495D;" vertex="1" parent="1">
          <mxGeometry x="307" y="1160" width="160" height="216" as="geometry">
            <mxRectangle x="320" y="310" width="80" height="30" as="alternateBounds" />
          </mxGeometry>
        </mxCell>
        <mxCell id="3rJVLB76j5-zWJeL9BG_-25" value="+ id_pelanggan: int&lt;div&gt;&lt;br&gt;&lt;/div&gt;" style="text;strokeColor=none;fillColor=none;align=left;verticalAlign=top;spacingLeft=4;spacingRight=4;overflow=hidden;rotatable=0;points=[[0,0.5],[1,0.5]];portConstraint=eastwest;whiteSpace=wrap;html=1;textShadow=0;labelBackgroundColor=none;fontColor=#46495D;" vertex="1" parent="3rJVLB76j5-zWJeL9BG_-24">
          <mxGeometry y="26" width="160" height="26" as="geometry" />
        </mxCell>
        <mxCell id="3rJVLB76j5-zWJeL9BG_-26" value="+ id_kasir: int" style="text;strokeColor=none;fillColor=none;align=left;verticalAlign=top;spacingLeft=4;spacingRight=4;overflow=hidden;rotatable=0;points=[[0,0.5],[1,0.5]];portConstraint=eastwest;whiteSpace=wrap;html=1;textShadow=0;labelBackgroundColor=none;fontColor=#46495D;" vertex="1" parent="3rJVLB76j5-zWJeL9BG_-24">
          <mxGeometry y="52" width="160" height="26" as="geometry" />
        </mxCell>
        <mxCell id="3rJVLB76j5-zWJeL9BG_-27" value="+ id_barang: int" style="text;strokeColor=none;fillColor=none;align=left;verticalAlign=top;spacingLeft=4;spacingRight=4;overflow=hidden;rotatable=0;points=[[0,0.5],[1,0.5]];portConstraint=eastwest;whiteSpace=wrap;html=1;textShadow=0;labelBackgroundColor=none;fontColor=#46495D;" vertex="1" parent="3rJVLB76j5-zWJeL9BG_-24">
          <mxGeometry y="78" width="160" height="26" as="geometry" />
        </mxCell>
        <mxCell id="3rJVLB76j5-zWJeL9BG_-28" value="+ id_transaksi : int" style="text;strokeColor=none;fillColor=none;align=left;verticalAlign=top;spacingLeft=4;spacingRight=4;overflow=hidden;rotatable=0;points=[[0,0.5],[1,0.5]];portConstraint=eastwest;whiteSpace=wrap;html=1;textShadow=0;labelBackgroundColor=none;fontColor=#46495D;" vertex="1" parent="3rJVLB76j5-zWJeL9BG_-24">
          <mxGeometry y="104" width="160" height="26" as="geometry" />
        </mxCell>
        <mxCell id="3rJVLB76j5-zWJeL9BG_-29" value="+ total_transaksi: int" style="text;strokeColor=none;fillColor=none;align=left;verticalAlign=top;spacingLeft=4;spacingRight=4;overflow=hidden;rotatable=0;points=[[0,0.5],[1,0.5]];portConstraint=eastwest;whiteSpace=wrap;html=1;textShadow=0;labelBackgroundColor=none;fontColor=#46495D;" vertex="1" parent="3rJVLB76j5-zWJeL9BG_-24">
          <mxGeometry y="130" width="160" height="26" as="geometry" />
        </mxCell>
        <mxCell id="3rJVLB76j5-zWJeL9BG_-30" value="" style="line;strokeWidth=1;fillColor=none;align=left;verticalAlign=middle;spacingTop=-1;spacingLeft=3;spacingRight=3;rotatable=0;labelPosition=right;points=[];portConstraint=eastwest;textShadow=0;labelBackgroundColor=none;strokeColor=#788AA3;fontColor=#46495D;" vertex="1" parent="3rJVLB76j5-zWJeL9BG_-24">
          <mxGeometry y="156" width="160" height="8" as="geometry" />
        </mxCell>
        <mxCell id="3rJVLB76j5-zWJeL9BG_-31" value="+ insert_data()" style="text;strokeColor=none;fillColor=none;align=left;verticalAlign=top;spacingLeft=4;spacingRight=4;overflow=hidden;rotatable=0;points=[[0,0.5],[1,0.5]];portConstraint=eastwest;whiteSpace=wrap;html=1;textShadow=0;labelBackgroundColor=none;fontColor=#46495D;" vertex="1" parent="3rJVLB76j5-zWJeL9BG_-24">
          <mxGeometry y="164" width="160" height="26" as="geometry" />
        </mxCell>
        <mxCell id="3rJVLB76j5-zWJeL9BG_-32" value="+ update_data()" style="text;strokeColor=none;fillColor=none;align=left;verticalAlign=top;spacingLeft=4;spacingRight=4;overflow=hidden;rotatable=0;points=[[0,0.5],[1,0.5]];portConstraint=eastwest;whiteSpace=wrap;html=1;textShadow=0;labelBackgroundColor=none;fontColor=#46495D;" vertex="1" parent="3rJVLB76j5-zWJeL9BG_-24">
          <mxGeometry y="190" width="160" height="26" as="geometry" />
        </mxCell>
        <mxCell id="3rJVLB76j5-zWJeL9BG_-33" value="Barang" style="swimlane;fontStyle=1;align=center;verticalAlign=top;childLayout=stackLayout;horizontal=1;startSize=26;horizontalStack=0;resizeParent=1;resizeParentMax=0;resizeLast=0;collapsible=1;marginBottom=0;whiteSpace=wrap;html=1;textShadow=0;labelBackgroundColor=none;fillColor=#66B2FF;strokeColor=#788AA3;fontColor=#46495D;" vertex="1" parent="1">
          <mxGeometry x="587" y="1184" width="160" height="192" as="geometry">
            <mxRectangle x="600" y="334" width="70" height="30" as="alternateBounds" />
          </mxGeometry>
        </mxCell>
        <mxCell id="3rJVLB76j5-zWJeL9BG_-34" value="+ id_barang: int" style="text;strokeColor=none;fillColor=none;align=left;verticalAlign=top;spacingLeft=4;spacingRight=4;overflow=hidden;rotatable=0;points=[[0,0.5],[1,0.5]];portConstraint=eastwest;whiteSpace=wrap;html=1;textShadow=0;labelBackgroundColor=none;fontColor=#46495D;" vertex="1" parent="3rJVLB76j5-zWJeL9BG_-33">
          <mxGeometry y="26" width="160" height="26" as="geometry" />
        </mxCell>
        <mxCell id="3rJVLB76j5-zWJeL9BG_-35" value="+ nama_barang: char" style="text;strokeColor=none;fillColor=none;align=left;verticalAlign=top;spacingLeft=4;spacingRight=4;overflow=hidden;rotatable=0;points=[[0,0.5],[1,0.5]];portConstraint=eastwest;whiteSpace=wrap;html=1;textShadow=0;labelBackgroundColor=none;fontColor=#46495D;" vertex="1" parent="3rJVLB76j5-zWJeL9BG_-33">
          <mxGeometry y="52" width="160" height="28" as="geometry" />
        </mxCell>
        <mxCell id="3rJVLB76j5-zWJeL9BG_-36" value="+ harga_barang: int" style="text;strokeColor=none;fillColor=none;align=left;verticalAlign=top;spacingLeft=4;spacingRight=4;overflow=hidden;rotatable=0;points=[[0,0.5],[1,0.5]];portConstraint=eastwest;whiteSpace=wrap;html=1;textShadow=0;labelBackgroundColor=none;fontColor=#46495D;" vertex="1" parent="3rJVLB76j5-zWJeL9BG_-33">
          <mxGeometry y="80" width="160" height="26" as="geometry" />
        </mxCell>
        <mxCell id="3rJVLB76j5-zWJeL9BG_-37" value="+ stok_barang: int" style="text;strokeColor=none;fillColor=none;align=left;verticalAlign=top;spacingLeft=4;spacingRight=4;overflow=hidden;rotatable=0;points=[[0,0.5],[1,0.5]];portConstraint=eastwest;whiteSpace=wrap;html=1;textShadow=0;labelBackgroundColor=none;fontColor=#46495D;" vertex="1" parent="3rJVLB76j5-zWJeL9BG_-33">
          <mxGeometry y="106" width="160" height="26" as="geometry" />
        </mxCell>
        <mxCell id="3rJVLB76j5-zWJeL9BG_-38" value="" style="line;strokeWidth=1;fillColor=none;align=left;verticalAlign=middle;spacingTop=-1;spacingLeft=3;spacingRight=3;rotatable=0;labelPosition=right;points=[];portConstraint=eastwest;textShadow=0;labelBackgroundColor=none;strokeColor=#788AA3;fontColor=#46495D;" vertex="1" parent="3rJVLB76j5-zWJeL9BG_-33">
          <mxGeometry y="132" width="160" height="8" as="geometry" />
        </mxCell>
        <mxCell id="3rJVLB76j5-zWJeL9BG_-39" value="+ insert_data()" style="text;strokeColor=none;fillColor=none;align=left;verticalAlign=top;spacingLeft=4;spacingRight=4;overflow=hidden;rotatable=0;points=[[0,0.5],[1,0.5]];portConstraint=eastwest;whiteSpace=wrap;html=1;textShadow=0;labelBackgroundColor=none;fontColor=#46495D;" vertex="1" parent="3rJVLB76j5-zWJeL9BG_-33">
          <mxGeometry y="140" width="160" height="26" as="geometry" />
        </mxCell>
        <mxCell id="3rJVLB76j5-zWJeL9BG_-40" value="+ update_data()" style="text;strokeColor=none;fillColor=none;align=left;verticalAlign=top;spacingLeft=4;spacingRight=4;overflow=hidden;rotatable=0;points=[[0,0.5],[1,0.5]];portConstraint=eastwest;whiteSpace=wrap;html=1;textShadow=0;labelBackgroundColor=none;fontColor=#46495D;" vertex="1" parent="3rJVLB76j5-zWJeL9BG_-33">
          <mxGeometry y="166" width="160" height="26" as="geometry" />
        </mxCell>
        <mxCell id="3rJVLB76j5-zWJeL9BG_-41" value="Pelanggan" style="swimlane;fontStyle=1;align=center;verticalAlign=top;childLayout=stackLayout;horizontal=1;startSize=26;horizontalStack=0;resizeParent=1;resizeParentMax=0;resizeLast=0;collapsible=1;marginBottom=0;whiteSpace=wrap;html=1;textShadow=0;labelBackgroundColor=none;fillColor=#66B2FF;strokeColor=#788AA3;fontColor=#46495D;" vertex="1" parent="1">
          <mxGeometry x="67" y="1020" width="160" height="190" as="geometry">
            <mxRectangle x="80" y="170" width="90" height="30" as="alternateBounds" />
          </mxGeometry>
        </mxCell>
        <mxCell id="3rJVLB76j5-zWJeL9BG_-42" value="+ id_pelanggan: int" style="text;strokeColor=none;fillColor=none;align=left;verticalAlign=top;spacingLeft=4;spacingRight=4;overflow=hidden;rotatable=0;points=[[0,0.5],[1,0.5]];portConstraint=eastwest;whiteSpace=wrap;html=1;textShadow=0;labelBackgroundColor=none;fontColor=#46495D;" vertex="1" parent="3rJVLB76j5-zWJeL9BG_-41">
          <mxGeometry y="26" width="160" height="26" as="geometry" />
        </mxCell>
        <mxCell id="3rJVLB76j5-zWJeL9BG_-43" value="+ nama: char" style="text;strokeColor=none;fillColor=none;align=left;verticalAlign=top;spacingLeft=4;spacingRight=4;overflow=hidden;rotatable=0;points=[[0,0.5],[1,0.5]];portConstraint=eastwest;whiteSpace=wrap;html=1;textShadow=0;labelBackgroundColor=none;fontColor=#46495D;" vertex="1" parent="3rJVLB76j5-zWJeL9BG_-41">
          <mxGeometry y="52" width="160" height="26" as="geometry" />
        </mxCell>
        <mxCell id="3rJVLB76j5-zWJeL9BG_-44" value="+ alamat: char" style="text;strokeColor=none;fillColor=none;align=left;verticalAlign=top;spacingLeft=4;spacingRight=4;overflow=hidden;rotatable=0;points=[[0,0.5],[1,0.5]];portConstraint=eastwest;whiteSpace=wrap;html=1;textShadow=0;labelBackgroundColor=none;fontColor=#46495D;" vertex="1" parent="3rJVLB76j5-zWJeL9BG_-41">
          <mxGeometry y="78" width="160" height="26" as="geometry" />
        </mxCell>
        <mxCell id="3rJVLB76j5-zWJeL9BG_-45" value="+ no_telp: int" style="text;strokeColor=none;fillColor=none;align=left;verticalAlign=top;spacingLeft=4;spacingRight=4;overflow=hidden;rotatable=0;points=[[0,0.5],[1,0.5]];portConstraint=eastwest;whiteSpace=wrap;html=1;textShadow=0;labelBackgroundColor=none;fontColor=#46495D;" vertex="1" parent="3rJVLB76j5-zWJeL9BG_-41">
          <mxGeometry y="104" width="160" height="26" as="geometry" />
        </mxCell>
        <mxCell id="3rJVLB76j5-zWJeL9BG_-47" value="" style="line;strokeWidth=1;fillColor=none;align=left;verticalAlign=middle;spacingTop=-1;spacingLeft=3;spacingRight=3;rotatable=0;labelPosition=right;points=[];portConstraint=eastwest;textShadow=0;labelBackgroundColor=none;strokeColor=#788AA3;fontColor=#46495D;" vertex="1" parent="3rJVLB76j5-zWJeL9BG_-41">
          <mxGeometry y="130" width="160" height="8" as="geometry" />
        </mxCell>
        <mxCell id="3rJVLB76j5-zWJeL9BG_-48" value="+ insert_data()" style="text;strokeColor=none;fillColor=none;align=left;verticalAlign=top;spacingLeft=4;spacingRight=4;overflow=hidden;rotatable=0;points=[[0,0.5],[1,0.5]];portConstraint=eastwest;whiteSpace=wrap;html=1;textShadow=0;labelBackgroundColor=none;fontColor=#46495D;" vertex="1" parent="3rJVLB76j5-zWJeL9BG_-41">
          <mxGeometry y="138" width="160" height="26" as="geometry" />
        </mxCell>
        <mxCell id="3rJVLB76j5-zWJeL9BG_-49" value="+ update_data()" style="text;strokeColor=none;fillColor=none;align=left;verticalAlign=top;spacingLeft=4;spacingRight=4;overflow=hidden;rotatable=0;points=[[0,0.5],[1,0.5]];portConstraint=eastwest;whiteSpace=wrap;html=1;textShadow=0;labelBackgroundColor=none;fontColor=#46495D;" vertex="1" parent="3rJVLB76j5-zWJeL9BG_-41">
          <mxGeometry y="164" width="160" height="26" as="geometry" />
        </mxCell>
        <mxCell id="3rJVLB76j5-zWJeL9BG_-50" value="Kasir" style="swimlane;fontStyle=1;align=center;verticalAlign=top;childLayout=stackLayout;horizontal=1;startSize=26;horizontalStack=0;resizeParent=1;resizeParentMax=0;resizeLast=0;collapsible=1;marginBottom=0;whiteSpace=wrap;html=1;textShadow=0;labelBackgroundColor=none;fillColor=#66B2FF;strokeColor=#788AA3;fontColor=#46495D;" vertex="1" parent="1">
          <mxGeometry x="77" y="1360" width="160" height="190" as="geometry">
            <mxRectangle x="90" y="510" width="80" height="30" as="alternateBounds" />
          </mxGeometry>
        </mxCell>
        <mxCell id="3rJVLB76j5-zWJeL9BG_-51" value="+ id_kasir: int" style="text;strokeColor=none;fillColor=none;align=left;verticalAlign=top;spacingLeft=4;spacingRight=4;overflow=hidden;rotatable=0;points=[[0,0.5],[1,0.5]];portConstraint=eastwest;whiteSpace=wrap;html=1;textShadow=0;labelBackgroundColor=none;fontColor=#46495D;" vertex="1" parent="3rJVLB76j5-zWJeL9BG_-50">
          <mxGeometry y="26" width="160" height="26" as="geometry" />
        </mxCell>
        <mxCell id="3rJVLB76j5-zWJeL9BG_-52" value="+ no_telp: int" style="text;strokeColor=none;fillColor=none;align=left;verticalAlign=top;spacingLeft=4;spacingRight=4;overflow=hidden;rotatable=0;points=[[0,0.5],[1,0.5]];portConstraint=eastwest;whiteSpace=wrap;html=1;textShadow=0;labelBackgroundColor=none;fontColor=#46495D;" vertex="1" parent="3rJVLB76j5-zWJeL9BG_-50">
          <mxGeometry y="52" width="160" height="26" as="geometry" />
        </mxCell>
        <mxCell id="3rJVLB76j5-zWJeL9BG_-53" value="+ nama: char" style="text;strokeColor=none;fillColor=none;align=left;verticalAlign=top;spacingLeft=4;spacingRight=4;overflow=hidden;rotatable=0;points=[[0,0.5],[1,0.5]];portConstraint=eastwest;whiteSpace=wrap;html=1;textShadow=0;labelBackgroundColor=none;fontColor=#46495D;" vertex="1" parent="3rJVLB76j5-zWJeL9BG_-50">
          <mxGeometry y="78" width="160" height="26" as="geometry" />
        </mxCell>
        <mxCell id="3rJVLB76j5-zWJeL9BG_-54" value="+ alamat: char" style="text;strokeColor=none;fillColor=none;align=left;verticalAlign=top;spacingLeft=4;spacingRight=4;overflow=hidden;rotatable=0;points=[[0,0.5],[1,0.5]];portConstraint=eastwest;whiteSpace=wrap;html=1;textShadow=0;labelBackgroundColor=none;fontColor=#46495D;" vertex="1" parent="3rJVLB76j5-zWJeL9BG_-50">
          <mxGeometry y="104" width="160" height="26" as="geometry" />
        </mxCell>
        <mxCell id="3rJVLB76j5-zWJeL9BG_-55" value="" style="line;strokeWidth=1;fillColor=none;align=left;verticalAlign=middle;spacingTop=-1;spacingLeft=3;spacingRight=3;rotatable=0;labelPosition=right;points=[];portConstraint=eastwest;textShadow=0;labelBackgroundColor=none;strokeColor=#788AA3;fontColor=#46495D;" vertex="1" parent="3rJVLB76j5-zWJeL9BG_-50">
          <mxGeometry y="130" width="160" height="8" as="geometry" />
        </mxCell>
        <mxCell id="3rJVLB76j5-zWJeL9BG_-56" value="+ insert_data()" style="text;strokeColor=none;fillColor=none;align=left;verticalAlign=top;spacingLeft=4;spacingRight=4;overflow=hidden;rotatable=0;points=[[0,0.5],[1,0.5]];portConstraint=eastwest;whiteSpace=wrap;html=1;textShadow=0;labelBackgroundColor=none;fontColor=#46495D;" vertex="1" parent="3rJVLB76j5-zWJeL9BG_-50">
          <mxGeometry y="138" width="160" height="26" as="geometry" />
        </mxCell>
        <mxCell id="3rJVLB76j5-zWJeL9BG_-57" value="+ update_data()" style="text;strokeColor=none;fillColor=none;align=left;verticalAlign=top;spacingLeft=4;spacingRight=4;overflow=hidden;rotatable=0;points=[[0,0.5],[1,0.5]];portConstraint=eastwest;whiteSpace=wrap;html=1;textShadow=0;labelBackgroundColor=none;fontColor=#46495D;" vertex="1" parent="3rJVLB76j5-zWJeL9BG_-50">
          <mxGeometry y="164" width="160" height="26" as="geometry" />
        </mxCell>
        <mxCell id="3rJVLB76j5-zWJeL9BG_-58" style="edgeStyle=orthogonalEdgeStyle;rounded=0;orthogonalLoop=1;jettySize=auto;html=1;exitX=1;exitY=0.5;exitDx=0;exitDy=0;entryX=0.5;entryY=0;entryDx=0;entryDy=0;endArrow=none;endFill=0;textShadow=0;labelBackgroundColor=none;fontColor=default;strokeColor=#788AA3;" edge="1" parent="1" source="3rJVLB76j5-zWJeL9BG_-44" target="3rJVLB76j5-zWJeL9BG_-24">
          <mxGeometry relative="1" as="geometry" />
        </mxCell>
        <mxCell id="3rJVLB76j5-zWJeL9BG_-59" value="1...*" style="edgeLabel;html=1;align=center;verticalAlign=middle;resizable=0;points=[];textShadow=0;labelBackgroundColor=none;fontColor=#46495D;" connectable="0" vertex="1" parent="3rJVLB76j5-zWJeL9BG_-58">
          <mxGeometry x="-0.9344" y="-1" relative="1" as="geometry">
            <mxPoint x="20" as="offset" />
          </mxGeometry>
        </mxCell>
        <mxCell id="3rJVLB76j5-zWJeL9BG_-60" value="1...1" style="edgeLabel;html=1;align=center;verticalAlign=middle;resizable=0;points=[];textShadow=0;labelBackgroundColor=none;fontColor=#46495D;" connectable="0" vertex="1" parent="3rJVLB76j5-zWJeL9BG_-58">
          <mxGeometry x="0.8517" relative="1" as="geometry">
            <mxPoint as="offset" />
          </mxGeometry>
        </mxCell>
        <mxCell id="3rJVLB76j5-zWJeL9BG_-61" style="edgeStyle=orthogonalEdgeStyle;rounded=0;orthogonalLoop=1;jettySize=auto;html=1;exitX=1;exitY=0.5;exitDx=0;exitDy=0;entryX=0;entryY=0.5;entryDx=0;entryDy=0;endArrow=none;endFill=0;textShadow=0;labelBackgroundColor=none;fontColor=default;strokeColor=#788AA3;" edge="1" parent="1" source="3rJVLB76j5-zWJeL9BG_-28" target="3rJVLB76j5-zWJeL9BG_-36">
          <mxGeometry relative="1" as="geometry" />
        </mxCell>
        <mxCell id="3rJVLB76j5-zWJeL9BG_-62" value="1...1" style="edgeLabel;html=1;align=center;verticalAlign=middle;resizable=0;points=[];textShadow=0;labelBackgroundColor=none;fontColor=#46495D;" connectable="0" vertex="1" parent="3rJVLB76j5-zWJeL9BG_-61">
          <mxGeometry x="-0.6883" y="1" relative="1" as="geometry">
            <mxPoint as="offset" />
          </mxGeometry>
        </mxCell>
        <mxCell id="3rJVLB76j5-zWJeL9BG_-63" value="1...*" style="edgeLabel;html=1;align=center;verticalAlign=middle;resizable=0;points=[];textShadow=0;labelBackgroundColor=none;fontColor=#46495D;" connectable="0" vertex="1" parent="3rJVLB76j5-zWJeL9BG_-61">
          <mxGeometry x="0.6617" y="1" relative="1" as="geometry">
            <mxPoint as="offset" />
          </mxGeometry>
        </mxCell>
        <mxCell id="3rJVLB76j5-zWJeL9BG_-64" style="edgeStyle=orthogonalEdgeStyle;rounded=0;orthogonalLoop=1;jettySize=auto;html=1;exitX=1;exitY=0.5;exitDx=0;exitDy=0;entryX=0.518;entryY=0.994;entryDx=0;entryDy=0;entryPerimeter=0;endArrow=none;endFill=0;textShadow=0;labelBackgroundColor=none;fontColor=default;strokeColor=#788AA3;" edge="1" parent="1" source="3rJVLB76j5-zWJeL9BG_-53" target="3rJVLB76j5-zWJeL9BG_-32">
          <mxGeometry relative="1" as="geometry" />
        </mxCell>
        <mxCell id="3rJVLB76j5-zWJeL9BG_-65" value="1...1" style="edgeLabel;html=1;align=center;verticalAlign=middle;resizable=0;points=[];textShadow=0;labelBackgroundColor=none;fontColor=#46495D;" connectable="0" vertex="1" parent="3rJVLB76j5-zWJeL9BG_-64">
          <mxGeometry x="0.8888" y="1" relative="1" as="geometry">
            <mxPoint as="offset" />
          </mxGeometry>
        </mxCell>
        <mxCell id="3rJVLB76j5-zWJeL9BG_-66" value="1...*" style="edgeLabel;html=1;align=center;verticalAlign=middle;resizable=0;points=[];textShadow=0;labelBackgroundColor=none;fontColor=#46495D;" connectable="0" vertex="1" parent="3rJVLB76j5-zWJeL9BG_-64">
          <mxGeometry x="-0.8754" y="1" relative="1" as="geometry">
            <mxPoint x="10" as="offset" />
          </mxGeometry>
        </mxCell>
        <mxCell id="3rJVLB76j5-zWJeL9BG_-67" value="Class diagram warung kelontong pak wanto" style="text;html=1;align=center;verticalAlign=middle;whiteSpace=wrap;rounded=0;fontSize=18;fontStyle=1;textShadow=0;labelBackgroundColor=none;fontColor=#46495D;" vertex="1" parent="1">
          <mxGeometry x="296" y="960" width="210" height="30" as="geometry" />
        </mxCell>
        <mxCell id="3rJVLB76j5-zWJeL9BG_-68" value="Kasir" style="swimlane;fontStyle=1;align=center;verticalAlign=top;childLayout=stackLayout;horizontal=1;startSize=26;horizontalStack=0;resizeParent=1;resizeParentMax=0;resizeLast=0;collapsible=1;marginBottom=0;whiteSpace=wrap;html=1;textShadow=0;labelBackgroundColor=none;fillColor=#66B2FF;strokeColor=#788AA3;fontColor=#46495D;" vertex="1" parent="1">
          <mxGeometry x="80" y="1810" width="160" height="190" as="geometry">
            <mxRectangle x="90" y="510" width="80" height="30" as="alternateBounds" />
          </mxGeometry>
        </mxCell>
        <mxCell id="3rJVLB76j5-zWJeL9BG_-69" value="+ id_kasir: int" style="text;strokeColor=none;fillColor=none;align=left;verticalAlign=top;spacingLeft=4;spacingRight=4;overflow=hidden;rotatable=0;points=[[0,0.5],[1,0.5]];portConstraint=eastwest;whiteSpace=wrap;html=1;textShadow=0;labelBackgroundColor=none;fontColor=#46495D;" vertex="1" parent="3rJVLB76j5-zWJeL9BG_-68">
          <mxGeometry y="26" width="160" height="26" as="geometry" />
        </mxCell>
        <mxCell id="3rJVLB76j5-zWJeL9BG_-70" value="+ no_telp: int" style="text;strokeColor=none;fillColor=none;align=left;verticalAlign=top;spacingLeft=4;spacingRight=4;overflow=hidden;rotatable=0;points=[[0,0.5],[1,0.5]];portConstraint=eastwest;whiteSpace=wrap;html=1;textShadow=0;labelBackgroundColor=none;fontColor=#46495D;" vertex="1" parent="3rJVLB76j5-zWJeL9BG_-68">
          <mxGeometry y="52" width="160" height="26" as="geometry" />
        </mxCell>
        <mxCell id="3rJVLB76j5-zWJeL9BG_-71" value="+ nama: char" style="text;strokeColor=none;fillColor=none;align=left;verticalAlign=top;spacingLeft=4;spacingRight=4;overflow=hidden;rotatable=0;points=[[0,0.5],[1,0.5]];portConstraint=eastwest;whiteSpace=wrap;html=1;textShadow=0;labelBackgroundColor=none;fontColor=#46495D;" vertex="1" parent="3rJVLB76j5-zWJeL9BG_-68">
          <mxGeometry y="78" width="160" height="26" as="geometry" />
        </mxCell>
        <mxCell id="3rJVLB76j5-zWJeL9BG_-72" value="+ alamat: char" style="text;strokeColor=none;fillColor=none;align=left;verticalAlign=top;spacingLeft=4;spacingRight=4;overflow=hidden;rotatable=0;points=[[0,0.5],[1,0.5]];portConstraint=eastwest;whiteSpace=wrap;html=1;textShadow=0;labelBackgroundColor=none;fontColor=#46495D;" vertex="1" parent="3rJVLB76j5-zWJeL9BG_-68">
          <mxGeometry y="104" width="160" height="26" as="geometry" />
        </mxCell>
        <mxCell id="3rJVLB76j5-zWJeL9BG_-73" value="" style="line;strokeWidth=1;fillColor=none;align=left;verticalAlign=middle;spacingTop=-1;spacingLeft=3;spacingRight=3;rotatable=0;labelPosition=right;points=[];portConstraint=eastwest;textShadow=0;labelBackgroundColor=none;strokeColor=#788AA3;fontColor=#46495D;" vertex="1" parent="3rJVLB76j5-zWJeL9BG_-68">
          <mxGeometry y="130" width="160" height="8" as="geometry" />
        </mxCell>
        <mxCell id="3rJVLB76j5-zWJeL9BG_-74" value="+ insert_data()" style="text;strokeColor=none;fillColor=none;align=left;verticalAlign=top;spacingLeft=4;spacingRight=4;overflow=hidden;rotatable=0;points=[[0,0.5],[1,0.5]];portConstraint=eastwest;whiteSpace=wrap;html=1;textShadow=0;labelBackgroundColor=none;fontColor=#46495D;" vertex="1" parent="3rJVLB76j5-zWJeL9BG_-68">
          <mxGeometry y="138" width="160" height="26" as="geometry" />
        </mxCell>
        <mxCell id="3rJVLB76j5-zWJeL9BG_-75" value="+ update_data()" style="text;strokeColor=none;fillColor=none;align=left;verticalAlign=top;spacingLeft=4;spacingRight=4;overflow=hidden;rotatable=0;points=[[0,0.5],[1,0.5]];portConstraint=eastwest;whiteSpace=wrap;html=1;textShadow=0;labelBackgroundColor=none;fontColor=#46495D;" vertex="1" parent="3rJVLB76j5-zWJeL9BG_-68">
          <mxGeometry y="164" width="160" height="26" as="geometry" />
        </mxCell>
        <mxCell id="3rJVLB76j5-zWJeL9BG_-77" value="Laporan Keuangan" style="swimlane;fontStyle=1;align=center;verticalAlign=top;childLayout=stackLayout;horizontal=1;startSize=26;horizontalStack=0;resizeParent=1;resizeParentMax=0;resizeLast=0;collapsible=1;marginBottom=0;whiteSpace=wrap;html=1;textShadow=0;labelBackgroundColor=none;fillColor=#66B2FF;strokeColor=#788AA3;fontColor=#46495D;" vertex="1" parent="1">
          <mxGeometry x="346" y="1600" width="160" height="190" as="geometry">
            <mxRectangle x="320" y="310" width="80" height="30" as="alternateBounds" />
          </mxGeometry>
        </mxCell>
        <mxCell id="3rJVLB76j5-zWJeL9BG_-78" value="+ id_laporan: int&lt;div&gt;&lt;br&gt;&lt;/div&gt;" style="text;strokeColor=none;fillColor=none;align=left;verticalAlign=top;spacingLeft=4;spacingRight=4;overflow=hidden;rotatable=0;points=[[0,0.5],[1,0.5]];portConstraint=eastwest;whiteSpace=wrap;html=1;textShadow=0;labelBackgroundColor=none;fontColor=#46495D;" vertex="1" parent="3rJVLB76j5-zWJeL9BG_-77">
          <mxGeometry y="26" width="160" height="26" as="geometry" />
        </mxCell>
        <mxCell id="3rJVLB76j5-zWJeL9BG_-79" value="+ tanggal_laporan : date" style="text;strokeColor=none;fillColor=none;align=left;verticalAlign=top;spacingLeft=4;spacingRight=4;overflow=hidden;rotatable=0;points=[[0,0.5],[1,0.5]];portConstraint=eastwest;whiteSpace=wrap;html=1;textShadow=0;labelBackgroundColor=none;fontColor=#46495D;" vertex="1" parent="3rJVLB76j5-zWJeL9BG_-77">
          <mxGeometry y="52" width="160" height="26" as="geometry" />
        </mxCell>
        <mxCell id="3rJVLB76j5-zWJeL9BG_-80" value="+ deskripsi : char" style="text;strokeColor=none;fillColor=none;align=left;verticalAlign=top;spacingLeft=4;spacingRight=4;overflow=hidden;rotatable=0;points=[[0,0.5],[1,0.5]];portConstraint=eastwest;whiteSpace=wrap;html=1;textShadow=0;labelBackgroundColor=none;fontColor=#46495D;" vertex="1" parent="3rJVLB76j5-zWJeL9BG_-77">
          <mxGeometry y="78" width="160" height="26" as="geometry" />
        </mxCell>
        <mxCell id="3rJVLB76j5-zWJeL9BG_-81" value="+ judul : char" style="text;strokeColor=none;fillColor=none;align=left;verticalAlign=top;spacingLeft=4;spacingRight=4;overflow=hidden;rotatable=0;points=[[0,0.5],[1,0.5]];portConstraint=eastwest;whiteSpace=wrap;html=1;textShadow=0;labelBackgroundColor=none;fontColor=#46495D;" vertex="1" parent="3rJVLB76j5-zWJeL9BG_-77">
          <mxGeometry y="104" width="160" height="26" as="geometry" />
        </mxCell>
        <mxCell id="3rJVLB76j5-zWJeL9BG_-83" value="" style="line;strokeWidth=1;fillColor=none;align=left;verticalAlign=middle;spacingTop=-1;spacingLeft=3;spacingRight=3;rotatable=0;labelPosition=right;points=[];portConstraint=eastwest;textShadow=0;labelBackgroundColor=none;strokeColor=#788AA3;fontColor=#46495D;" vertex="1" parent="3rJVLB76j5-zWJeL9BG_-77">
          <mxGeometry y="130" width="160" height="8" as="geometry" />
        </mxCell>
        <mxCell id="3rJVLB76j5-zWJeL9BG_-84" value="+ insert_data()" style="text;strokeColor=none;fillColor=none;align=left;verticalAlign=top;spacingLeft=4;spacingRight=4;overflow=hidden;rotatable=0;points=[[0,0.5],[1,0.5]];portConstraint=eastwest;whiteSpace=wrap;html=1;textShadow=0;labelBackgroundColor=none;fontColor=#46495D;" vertex="1" parent="3rJVLB76j5-zWJeL9BG_-77">
          <mxGeometry y="138" width="160" height="26" as="geometry" />
        </mxCell>
        <mxCell id="3rJVLB76j5-zWJeL9BG_-85" value="+ update_data()" style="text;strokeColor=none;fillColor=none;align=left;verticalAlign=top;spacingLeft=4;spacingRight=4;overflow=hidden;rotatable=0;points=[[0,0.5],[1,0.5]];portConstraint=eastwest;whiteSpace=wrap;html=1;textShadow=0;labelBackgroundColor=none;fontColor=#46495D;" vertex="1" parent="3rJVLB76j5-zWJeL9BG_-77">
          <mxGeometry y="164" width="160" height="26" as="geometry" />
        </mxCell>
        <mxCell id="3rJVLB76j5-zWJeL9BG_-90" value="Laporan Keuangan" style="swimlane;fontStyle=1;align=center;verticalAlign=top;childLayout=stackLayout;horizontal=1;startSize=26;horizontalStack=0;resizeParent=1;resizeParentMax=0;resizeLast=0;collapsible=1;marginBottom=0;whiteSpace=wrap;html=1;textShadow=0;labelBackgroundColor=none;fillColor=#66B2FF;strokeColor=#788AA3;fontColor=#46495D;" vertex="1" parent="1">
          <mxGeometry x="346" y="1810" width="160" height="190" as="geometry">
            <mxRectangle x="320" y="310" width="80" height="30" as="alternateBounds" />
          </mxGeometry>
        </mxCell>
        <mxCell id="3rJVLB76j5-zWJeL9BG_-91" value="+ id_laporan: int&lt;div&gt;&lt;br&gt;&lt;/div&gt;" style="text;strokeColor=none;fillColor=none;align=left;verticalAlign=top;spacingLeft=4;spacingRight=4;overflow=hidden;rotatable=0;points=[[0,0.5],[1,0.5]];portConstraint=eastwest;whiteSpace=wrap;html=1;textShadow=0;labelBackgroundColor=none;fontColor=#46495D;" vertex="1" parent="3rJVLB76j5-zWJeL9BG_-90">
          <mxGeometry y="26" width="160" height="26" as="geometry" />
        </mxCell>
        <mxCell id="3rJVLB76j5-zWJeL9BG_-92" value="+ tanggal_laporan : date" style="text;strokeColor=none;fillColor=none;align=left;verticalAlign=top;spacingLeft=4;spacingRight=4;overflow=hidden;rotatable=0;points=[[0,0.5],[1,0.5]];portConstraint=eastwest;whiteSpace=wrap;html=1;textShadow=0;labelBackgroundColor=none;fontColor=#46495D;" vertex="1" parent="3rJVLB76j5-zWJeL9BG_-90">
          <mxGeometry y="52" width="160" height="26" as="geometry" />
        </mxCell>
        <mxCell id="3rJVLB76j5-zWJeL9BG_-93" value="+ deskripsi : char" style="text;strokeColor=none;fillColor=none;align=left;verticalAlign=top;spacingLeft=4;spacingRight=4;overflow=hidden;rotatable=0;points=[[0,0.5],[1,0.5]];portConstraint=eastwest;whiteSpace=wrap;html=1;textShadow=0;labelBackgroundColor=none;fontColor=#46495D;" vertex="1" parent="3rJVLB76j5-zWJeL9BG_-90">
          <mxGeometry y="78" width="160" height="26" as="geometry" />
        </mxCell>
        <mxCell id="3rJVLB76j5-zWJeL9BG_-94" value="+ judul : char" style="text;strokeColor=none;fillColor=none;align=left;verticalAlign=top;spacingLeft=4;spacingRight=4;overflow=hidden;rotatable=0;points=[[0,0.5],[1,0.5]];portConstraint=eastwest;whiteSpace=wrap;html=1;textShadow=0;labelBackgroundColor=none;fontColor=#46495D;" vertex="1" parent="3rJVLB76j5-zWJeL9BG_-90">
          <mxGeometry y="104" width="160" height="26" as="geometry" />
        </mxCell>
        <mxCell id="3rJVLB76j5-zWJeL9BG_-95" value="" style="line;strokeWidth=1;fillColor=none;align=left;verticalAlign=middle;spacingTop=-1;spacingLeft=3;spacingRight=3;rotatable=0;labelPosition=right;points=[];portConstraint=eastwest;textShadow=0;labelBackgroundColor=none;strokeColor=#788AA3;fontColor=#46495D;" vertex="1" parent="3rJVLB76j5-zWJeL9BG_-90">
          <mxGeometry y="130" width="160" height="8" as="geometry" />
        </mxCell>
        <mxCell id="3rJVLB76j5-zWJeL9BG_-96" value="+ insert_data()" style="text;strokeColor=none;fillColor=none;align=left;verticalAlign=top;spacingLeft=4;spacingRight=4;overflow=hidden;rotatable=0;points=[[0,0.5],[1,0.5]];portConstraint=eastwest;whiteSpace=wrap;html=1;textShadow=0;labelBackgroundColor=none;fontColor=#46495D;" vertex="1" parent="3rJVLB76j5-zWJeL9BG_-90">
          <mxGeometry y="138" width="160" height="26" as="geometry" />
        </mxCell>
        <mxCell id="3rJVLB76j5-zWJeL9BG_-97" value="+ update_data()" style="text;strokeColor=none;fillColor=none;align=left;verticalAlign=top;spacingLeft=4;spacingRight=4;overflow=hidden;rotatable=0;points=[[0,0.5],[1,0.5]];portConstraint=eastwest;whiteSpace=wrap;html=1;textShadow=0;labelBackgroundColor=none;fontColor=#46495D;" vertex="1" parent="3rJVLB76j5-zWJeL9BG_-90">
          <mxGeometry y="164" width="160" height="26" as="geometry" />
        </mxCell>
        <mxCell id="3rJVLB76j5-zWJeL9BG_-98" value="Laporan Keuangan" style="swimlane;fontStyle=1;align=center;verticalAlign=top;childLayout=stackLayout;horizontal=1;startSize=26;horizontalStack=0;resizeParent=1;resizeParentMax=0;resizeLast=0;collapsible=1;marginBottom=0;whiteSpace=wrap;html=1;textShadow=0;labelBackgroundColor=none;fillColor=#66B2FF;strokeColor=#788AA3;fontColor=#46495D;" vertex="1" parent="1">
          <mxGeometry x="346" y="2020" width="160" height="190" as="geometry">
            <mxRectangle x="320" y="310" width="80" height="30" as="alternateBounds" />
          </mxGeometry>
        </mxCell>
        <mxCell id="3rJVLB76j5-zWJeL9BG_-99" value="+ id_laporan: int&lt;div&gt;&lt;br&gt;&lt;/div&gt;" style="text;strokeColor=none;fillColor=none;align=left;verticalAlign=top;spacingLeft=4;spacingRight=4;overflow=hidden;rotatable=0;points=[[0,0.5],[1,0.5]];portConstraint=eastwest;whiteSpace=wrap;html=1;textShadow=0;labelBackgroundColor=none;fontColor=#46495D;" vertex="1" parent="3rJVLB76j5-zWJeL9BG_-98">
          <mxGeometry y="26" width="160" height="26" as="geometry" />
        </mxCell>
        <mxCell id="3rJVLB76j5-zWJeL9BG_-100" value="+ tanggal_laporan : date" style="text;strokeColor=none;fillColor=none;align=left;verticalAlign=top;spacingLeft=4;spacingRight=4;overflow=hidden;rotatable=0;points=[[0,0.5],[1,0.5]];portConstraint=eastwest;whiteSpace=wrap;html=1;textShadow=0;labelBackgroundColor=none;fontColor=#46495D;" vertex="1" parent="3rJVLB76j5-zWJeL9BG_-98">
          <mxGeometry y="52" width="160" height="26" as="geometry" />
        </mxCell>
        <mxCell id="3rJVLB76j5-zWJeL9BG_-101" value="+ deskripsi : char" style="text;strokeColor=none;fillColor=none;align=left;verticalAlign=top;spacingLeft=4;spacingRight=4;overflow=hidden;rotatable=0;points=[[0,0.5],[1,0.5]];portConstraint=eastwest;whiteSpace=wrap;html=1;textShadow=0;labelBackgroundColor=none;fontColor=#46495D;" vertex="1" parent="3rJVLB76j5-zWJeL9BG_-98">
          <mxGeometry y="78" width="160" height="26" as="geometry" />
        </mxCell>
        <mxCell id="3rJVLB76j5-zWJeL9BG_-102" value="+ judul : char" style="text;strokeColor=none;fillColor=none;align=left;verticalAlign=top;spacingLeft=4;spacingRight=4;overflow=hidden;rotatable=0;points=[[0,0.5],[1,0.5]];portConstraint=eastwest;whiteSpace=wrap;html=1;textShadow=0;labelBackgroundColor=none;fontColor=#46495D;" vertex="1" parent="3rJVLB76j5-zWJeL9BG_-98">
          <mxGeometry y="104" width="160" height="26" as="geometry" />
        </mxCell>
        <mxCell id="3rJVLB76j5-zWJeL9BG_-103" value="" style="line;strokeWidth=1;fillColor=none;align=left;verticalAlign=middle;spacingTop=-1;spacingLeft=3;spacingRight=3;rotatable=0;labelPosition=right;points=[];portConstraint=eastwest;textShadow=0;labelBackgroundColor=none;strokeColor=#788AA3;fontColor=#46495D;" vertex="1" parent="3rJVLB76j5-zWJeL9BG_-98">
          <mxGeometry y="130" width="160" height="8" as="geometry" />
        </mxCell>
        <mxCell id="3rJVLB76j5-zWJeL9BG_-104" value="+ insert_data()" style="text;strokeColor=none;fillColor=none;align=left;verticalAlign=top;spacingLeft=4;spacingRight=4;overflow=hidden;rotatable=0;points=[[0,0.5],[1,0.5]];portConstraint=eastwest;whiteSpace=wrap;html=1;textShadow=0;labelBackgroundColor=none;fontColor=#46495D;" vertex="1" parent="3rJVLB76j5-zWJeL9BG_-98">
          <mxGeometry y="138" width="160" height="26" as="geometry" />
        </mxCell>
        <mxCell id="3rJVLB76j5-zWJeL9BG_-105" value="+ update_data()" style="text;strokeColor=none;fillColor=none;align=left;verticalAlign=top;spacingLeft=4;spacingRight=4;overflow=hidden;rotatable=0;points=[[0,0.5],[1,0.5]];portConstraint=eastwest;whiteSpace=wrap;html=1;textShadow=0;labelBackgroundColor=none;fontColor=#46495D;" vertex="1" parent="3rJVLB76j5-zWJeL9BG_-98">
          <mxGeometry y="164" width="160" height="26" as="geometry" />
        </mxCell>
        <mxCell id="3rJVLB76j5-zWJeL9BG_-107" style="edgeStyle=orthogonalEdgeStyle;rounded=0;orthogonalLoop=1;jettySize=auto;html=1;exitX=1;exitY=0.5;exitDx=0;exitDy=0;entryX=0;entryY=0.5;entryDx=0;entryDy=0;endArrow=none;endFill=0;textShadow=0;labelBackgroundColor=none;fontColor=default;strokeColor=#788AA3;" edge="1" parent="1" source="3rJVLB76j5-zWJeL9BG_-71" target="3rJVLB76j5-zWJeL9BG_-77">
          <mxGeometry relative="1" as="geometry">
            <mxPoint x="247" y="1461" as="sourcePoint" />
            <mxPoint x="400" y="1386" as="targetPoint" />
          </mxGeometry>
        </mxCell>
        <mxCell id="3rJVLB76j5-zWJeL9BG_-108" value="1...1" style="edgeLabel;html=1;align=center;verticalAlign=middle;resizable=0;points=[];textShadow=0;labelBackgroundColor=none;fontColor=#46495D;" connectable="0" vertex="1" parent="3rJVLB76j5-zWJeL9BG_-107">
          <mxGeometry x="0.8888" y="1" relative="1" as="geometry">
            <mxPoint as="offset" />
          </mxGeometry>
        </mxCell>
        <mxCell id="3rJVLB76j5-zWJeL9BG_-109" value="1...1" style="edgeLabel;html=1;align=center;verticalAlign=middle;resizable=0;points=[];textShadow=0;labelBackgroundColor=none;fontColor=#46495D;" connectable="0" vertex="1" parent="3rJVLB76j5-zWJeL9BG_-107">
          <mxGeometry x="-0.8754" y="1" relative="1" as="geometry">
            <mxPoint x="10" as="offset" />
          </mxGeometry>
        </mxCell>
        <mxCell id="3rJVLB76j5-zWJeL9BG_-110" style="edgeStyle=orthogonalEdgeStyle;rounded=0;orthogonalLoop=1;jettySize=auto;html=1;exitX=1;exitY=0.5;exitDx=0;exitDy=0;entryX=0;entryY=0.5;entryDx=0;entryDy=0;endArrow=none;endFill=0;textShadow=0;labelBackgroundColor=none;fontColor=default;strokeColor=#788AA3;" edge="1" parent="1">
          <mxGeometry relative="1" as="geometry">
            <mxPoint x="240" y="1927.0000000000005" as="sourcePoint" />
            <mxPoint x="346" y="1927.0000000000005" as="targetPoint" />
          </mxGeometry>
        </mxCell>
        <mxCell id="3rJVLB76j5-zWJeL9BG_-111" value="1...1" style="edgeLabel;html=1;align=center;verticalAlign=middle;resizable=0;points=[];textShadow=0;labelBackgroundColor=none;fontColor=#46495D;" connectable="0" vertex="1" parent="3rJVLB76j5-zWJeL9BG_-110">
          <mxGeometry x="0.8888" y="1" relative="1" as="geometry">
            <mxPoint as="offset" />
          </mxGeometry>
        </mxCell>
        <mxCell id="3rJVLB76j5-zWJeL9BG_-112" value="1...1" style="edgeLabel;html=1;align=center;verticalAlign=middle;resizable=0;points=[];textShadow=0;labelBackgroundColor=none;fontColor=#46495D;" connectable="0" vertex="1" parent="3rJVLB76j5-zWJeL9BG_-110">
          <mxGeometry x="-0.8754" y="1" relative="1" as="geometry">
            <mxPoint x="10" as="offset" />
          </mxGeometry>
        </mxCell>
        <mxCell id="3rJVLB76j5-zWJeL9BG_-113" style="edgeStyle=orthogonalEdgeStyle;rounded=0;orthogonalLoop=1;jettySize=auto;html=1;exitX=1;exitY=0.5;exitDx=0;exitDy=0;entryX=0;entryY=0.5;entryDx=0;entryDy=0;endArrow=none;endFill=0;textShadow=0;labelBackgroundColor=none;fontColor=default;strokeColor=#788AA3;" edge="1" parent="1" source="3rJVLB76j5-zWJeL9BG_-74" target="3rJVLB76j5-zWJeL9BG_-102">
          <mxGeometry relative="1" as="geometry">
            <mxPoint x="250" y="1937" as="sourcePoint" />
            <mxPoint x="356" y="1937" as="targetPoint" />
          </mxGeometry>
        </mxCell>
        <mxCell id="3rJVLB76j5-zWJeL9BG_-114" value="1...1" style="edgeLabel;html=1;align=center;verticalAlign=middle;resizable=0;points=[];textShadow=0;labelBackgroundColor=none;fontColor=#46495D;" connectable="0" vertex="1" parent="3rJVLB76j5-zWJeL9BG_-113">
          <mxGeometry x="0.8888" y="1" relative="1" as="geometry">
            <mxPoint as="offset" />
          </mxGeometry>
        </mxCell>
        <mxCell id="3rJVLB76j5-zWJeL9BG_-115" value="1...1" style="edgeLabel;html=1;align=center;verticalAlign=middle;resizable=0;points=[];textShadow=0;labelBackgroundColor=none;fontColor=#46495D;" connectable="0" vertex="1" parent="3rJVLB76j5-zWJeL9BG_-113">
          <mxGeometry x="-0.8754" y="1" relative="1" as="geometry">
            <mxPoint x="10" as="offset" />
          </mxGeometry>
        </mxCell>
      </root>
    </mxGraphModel>
  </diagram>
</mxfile>
